<svg xmlns="http://www.w3.org/2000/svg" width="920" height="220" viewBox="0 0 920 220" role="img" aria-labelledby="title desc">

<title id="title">Subactor logo</title>
<desc id="desc">Subactor wordmark with S-shaped bounded execution path and evidence checkpoints.</desc>
<g transform="translate(28,38) scale(2.25)">
<rect x="4" y="4" width="56" height="56" rx="14" fill="none" stroke="#07111F" stroke-width="4"/>
<path d="M46 18 H18 V32 H46 V46 H18" fill="none" stroke="#22D3C5" stroke-width="5.5" stroke-linecap="round" stroke-linejoin="round"/>
<circle cx="46" cy="18" r="4.5" fill="#B7F75C"/>
<circle cx="18" cy="32" r="4.5" fill="#22D3C5" stroke="#07111F" stroke-width="1.6"/>
<circle cx="18" cy="46" r="4.5" fill="#B7F75C"/>
</g>
<path d="M1047 1085V813Q932 861 825.0 885.0Q718 909 623 909Q521 909 471.5 883.5Q422 858 422 805Q422 762 459.5 739.0Q497 716 594 705L657 696Q932 661 1027.0 581.0Q1122 501 1122 330Q1122 151 990.0 61.0Q858 -29 596 -29Q485 -29 366.5 -11.5Q248 6 123 41V313Q230 261 342.5 235.0Q455 209 571 209Q676 209 729.0 238.0Q782 267 782 324Q782 372 745.5 395.5Q709 419 600 432L537 440Q298 470 202.0 551.0Q106 632 106 797Q106 975 228.0 1061.0Q350 1147 602 1147Q701 1147 810.0 1132.0Q919 1117 1047 1085Z" transform="translate(205.000,136.000) scale(0.0429688,-0.0429688)" fill="#07111F"/>
<path d="M160 436V1120H520V1008Q520 917 519.0 779.5Q518 642 518 596Q518 461 525.0 401.5Q532 342 549 315Q571 280 606.5 261.0Q642 242 688 242Q800 242 864.0 328.0Q928 414 928 567V1120H1286V0H928V162Q847 64 756.5 17.5Q666 -29 557 -29Q363 -29 261.5 90.0Q160 209 160 436Z" transform="translate(258.179,136.000) scale(0.0429688,-0.0429688)" fill="#07111F"/>
<path d="M768 231Q883 231 943.5 315.0Q1004 399 1004 559Q1004 719 943.5 803.0Q883 887 768 887Q653 887 591.5 802.5Q530 718 530 559Q530 400 591.5 315.5Q653 231 768 231ZM530 956Q604 1054 694.0 1100.5Q784 1147 901 1147Q1108 1147 1241.0 982.5Q1374 818 1374 559Q1374 300 1241.0 135.5Q1108 -29 901 -29Q784 -29 694.0 17.5Q604 64 530 162V0H172V1556H530Z" transform="translate(321.627,136.000) scale(0.0429688,-0.0429688)" fill="#07111F"/>
<path d="M674 504Q562 504 505.5 466.0Q449 428 449 354Q449 286 494.5 247.5Q540 209 621 209Q722 209 791.0 281.5Q860 354 860 463V504ZM1221 639V0H860V166Q788 64 698.0 17.5Q608 -29 479 -29Q305 -29 196.5 72.5Q88 174 88 336Q88 533 223.5 625.0Q359 717 649 717H860V745Q860 830 793.0 869.5Q726 909 584 909Q469 909 370.0 886.0Q271 863 186 817V1090Q301 1118 417.0 1132.5Q533 1147 649 1147Q952 1147 1086.5 1027.5Q1221 908 1221 639Z" transform="translate(385.420,136.000) scale(0.0429688,-0.0429688)" fill="#07111F"/>
<path d="M1077 1085V793Q1004 843 930.5 867.0Q857 891 778 891Q628 891 544.5 803.5Q461 716 461 559Q461 402 544.5 314.5Q628 227 778 227Q862 227 937.5 252.0Q1013 277 1077 326V33Q993 2 906.5 -13.5Q820 -29 733 -29Q430 -29 259.0 126.5Q88 282 88 559Q88 836 259.0 991.5Q430 1147 733 1147Q821 1147 906.5 1131.5Q992 1116 1077 1085Z" transform="translate(445.602,136.000) scale(0.0429688,-0.0429688)" fill="#07111F"/>
<path d="M563 1438V1120H932V864H563V389Q563 311 594.0 283.5Q625 256 717 256H901V0H594Q382 0 293.5 88.5Q205 177 205 389V864H27V1120H205V1438Z" transform="translate(498.566,136.000) scale(0.0429688,-0.0429688)" fill="#07111F"/>
<path d="M705 891Q586 891 523.5 805.5Q461 720 461 559Q461 398 523.5 312.5Q586 227 705 227Q822 227 884.0 312.5Q946 398 946 559Q946 720 884.0 805.5Q822 891 705 891ZM705 1147Q994 1147 1156.5 991.0Q1319 835 1319 559Q1319 283 1156.5 127.0Q994 -29 705 -29Q415 -29 251.5 127.0Q88 283 88 559Q88 835 251.5 991.0Q415 1147 705 1147Z" transform="translate(541.433,136.000) scale(0.0429688,-0.0429688)" fill="#07111F"/>
<path d="M1004 815Q957 837 910.5 847.5Q864 858 817 858Q679 858 604.5 769.5Q530 681 530 516V0H172V1120H530V936Q599 1046 688.5 1096.5Q778 1147 903 1147Q921 1147 942.0 1145.5Q963 1144 1003 1139Z" transform="translate(602.690,136.000) scale(0.0429688,-0.0429688)" fill="#07111F"/>
</svg>